
>>
>> "C:\Program Files (x86)\ffmpegyag\bin\ffmpeg-hi10-heaac.exe" -i "D:\Work\Gachi.club\vids\1.mp4" -strict experimental -f mp4 -map_chapters -1 -map 0:0 -sn -an -b:v:0 3200k -aspect:v:0 16:9 -mbd:v:0 rd -mbcmp:v:0 rd -cmp:v:0 rd -precmp:v:0 rd -subcmp:v:0 rd -trellis:v:0 1 -y "D:\Work\Gachi.club\vids\11.mp4"
>>

ffmpeg version 2.6.2 Copyright (c) 2000-2015 the FFmpeg developers
  built with gcc 4.8.3 (GCC)
  configuration: --enable-static --disable-shared --enable-gpl --enable-nonfree --enable-zlib --enable-bzlib --enable-libfreetype --enable-fontconfig --enable-libass --enable-libfaac --enable-libfdk_aac --enable-libmp3lame --enable-libvorbis --enable-libtheora --enable-libxvid --enable-libx264 --enable-libx265 --enable-libbluray --enable-runtime-cpudetect --disable-debug --enable-w32threads --cpu=i686 --extra-libs=' -L/usr/local/lib -lx265 -lstdc++' --extra-cflags=-static --extra-ldflags=-static
  libavutil      54. 20.100 / 54. 20.100
  libavcodec     56. 26.100 / 56. 26.100
  libavformat    56. 25.101 / 56. 25.101
  libavdevice    56.  4.100 / 56.  4.100
  libavfilter     5. 11.102 /  5. 11.102
  libswscale      3.  1.101 /  3.  1.101
  libswresample   1.  1.100 /  1.  1.100
  libpostproc    53.  3.100 / 53.  3.100
Input #0, mov,mp4,m4a,3gp,3g2,mj2, from 'D:\Work\Gachi.club\vids\1.mp4':
  Metadata:
    major_brand     : isom
    minor_version   : 512
    compatible_brands: isomiso2avc1mp41
    encoder         : Lavf57.83.100
  Duration: 00:00:03.39, start: 0.000000, bitrate: 159 kb/s
    Stream #0:0(und): Video: h264 (High) (avc1 / 0x31637661), yuv420p, 320x246, 155 kb/s, 15.04 fps, 100 tbr, 90k tbn, 200 tbc (default)
    Metadata:
      handler_name    : VideoHandler
No pixel format specified, yuv420p10le for H.264 encoding chosen.
Use -pix_fmt yuv420p for compatibility with outdated media players.
[libx264 @ 04232e40] using SAR=41/30
[libx264 @ 04232e40] using cpu capabilities: MMX2 SSE2Fast SSSE3 SSE4.2 AVX
[libx264 @ 04232e40] profile High 10, level 3.0, 4:2:0 10-bit
[libx264 @ 04232e40] 264 - core 142 - H.264/MPEG-4 AVC codec - Copyleft 2003-2014 - http://www.videolan.org/x264.html - options: cabac=1 ref=3 deblock=1:0:0 analyse=0x3:0x113 me=hex subme=7 psy=1 psy_rd=1.00:0.00 mixed_ref=1 me_range=16 chroma_me=0 trellis=1 8x8dct=1 cqm=0 deadzone=21,11 fast_pskip=1 chroma_qp_offset=-2 threads=6 lookahead_threads=1 sliced_threads=0 nr=0 decimate=1 interlaced=0 bluray_compat=0 constrained_intra=0 bframes=3 b_pyramid=2 b_adapt=1 b_bias=0 direct=1 weightb=1 open_gop=0 weightp=2 keyint=250 keyint_min=25 scenecut=40 intra_refresh=0 rc_lookahead=40 rc=abr mbtree=1 bitrate=3200 ratetol=1.0 qcomp=0.60 qpmin=0 qpmax=81 qpstep=4 ip_ratio=1.40 aq=1:1.00
Output #0, mp4, to 'D:\Work\Gachi.club\vids\11.mp4':
  Metadata:
    major_brand     : isom
    minor_version   : 512
    compatible_brands: isomiso2avc1mp41
    encoder         : Lavf56.25.101
    Stream #0:0(und): Video: h264 (libx264) ([33][0][0][0] / 0x0021), yuv420p10le, 320x246 [SAR 41:30 DAR 16:9], q=-1--1, 3200 kb/s, 100 fps, 12800 tbn, 100 tbc (default)
    Metadata:
      handler_name    : VideoHandler
      encoder         : Lavc56.26.100 libx264
Stream mapping:
  Stream #0:0 -> #0:0 (h264 (native) -> h264 (libx264))
Press [q] to stop, [?] for help
video:1167kB audio:0kB subtitle:0kB other streams:0kB global headers:0kB muxing overhead: 0.403419%
[libx264 @ 04232e40] frame I:2     Avg QP:15.17  size: 26845
[libx264 @ 04232e40] frame P:127   Avg QP:12.56  size:  8952
[libx264 @ 04232e40] frame B:205   Avg QP:22.50  size:    17
[libx264 @ 04232e40] consecutive B-frames:  7.5% 31.7%  0.9% 59.9%
[libx264 @ 04232e40] mb I  I16..4:  0.5% 42.3% 57.2%
[libx264 @ 04232e40] mb P  I16..4:  0.0%  0.4%  2.5%  P16..4: 18.5% 12.2%  9.1%  0.0%  0.0%    skip:57.3%
[libx264 @ 04232e40] mb B  I16..4:  0.0%  0.0%  0.0%  B16..8:  0.5%  0.0%  0.0%  direct: 0.0%  skip:99.5%  L0:18.0% L1:82.0% BI: 0.0%
[libx264 @ 04232e40] final ratefactor: -3.98
[libx264 @ 04232e40] 8x8 transform intra:23.7% inter:36.1%
[libx264 @ 04232e40] coded y,uvDC,uvAC intra: 90.4% 0.0% 0.0% inter: 14.0% 0.0% 0.0%
[libx264 @ 04232e40] i16 v,h,dc,p:  0% 80%  5% 15%
[libx264 @ 04232e40] i8 v,h,dc,ddl,ddr,vr,hd,vl,hu: 21% 18%  4%  6% 10% 11% 14%  9%  8%
[libx264 @ 04232e40] i4 v,h,dc,ddl,ddr,vr,hd,vl,hu: 40% 16%  6%  3%  8%  8%  8%  6%  5%
[libx264 @ 04232e40] i8c dc,h,v,p: 100%  0%  0%  0%
[libx264 @ 04232e40] Weighted P-Frames: Y:0.0% UV:0.0%
[libx264 @ 04232e40] ref P L0: 95.4%  2.7%  1.9%
[libx264 @ 04232e40] ref B L0: 98.3%  1.7%
[libx264 @ 04232e40] ref B L1: 92.9%  7.1%
[libx264 @ 04232e40] kb/s:2860.11
